<svg width="100" height="80" xmlns="http://www.w3.org/2000/svg">
 <g>
  <title>Layer 1</title>
  <g stroke="null" id="svg_36">
   <g stroke="null" transform="matrix(1.5129850635103754,0,0,1.675788503934741,-238.63648382593666,-278.2087893910823) " id="svg_28">
    <path class="icon" stroke="null" id="svg_29" d="m219.872868,206.232763l0,-38.4l-58.4,0l0,38.4l-3.5,0l0,3l2.8,3.9l60,0l2.8,-3.9l0,-3l-3.7,0zm-1.5,-36.9l0,4.3l-55.4,0l0,-4.3l55.4,0zm-55.4,5.9l55.4,0l0,31l-55.4,0l0,-31zm59,33.5l-2,2.8l-58.5,0l-2,-2.8l0,-1l2,0l60.5,0l0,1z"/>
    <polygon stroke="null" id="svg_30" points="197.87286376953128,186.8326959013939 203.37286376953128,191.43270200490952 197.87286376953128,195.93270200490952 198.77285766601565,197.1326989531517 205.77285766601565,191.43270200490952 198.77285766601565,185.6326989531517 "/>
    <polygon stroke="null" id="svg_31" points="182.57286071777347,185.6326989531517 175.57286071777347,191.43270200490952 182.57286071777347,197.1326989531517 183.4728698730469,195.93270200490952 177.9728698730469,191.43270200490952 183.4728698730469,186.8326959013939 "/>
    <rect stroke="null" id="svg_32" height="22.8" width="1.5" transform="matrix(-0.8965,-0.4431,0.4431,-0.8965,46.8139,77.8396) " y="-49.396759" x="-180.071425"/>
    <rect stroke="null" id="svg_33" height="1.5" width="1.5" y="170.732763" x="165.172868"/>
    <rect stroke="null" id="svg_34" height="1.5" width="1.5" y="170.732763" x="171.772868"/>
    <rect stroke="null" id="svg_35" height="1.5" width="1.5" y="170.732763" x="168.472868"/>
   </g>
  </g>
 </g>
</svg>